<?xml version="1.0" encoding="UTF-8" standalone="no"?>
<!DOCTYPE svg PUBLIC "-//W3C//DTD SVG 1.1//EN" "http://www.w3.org/Graphics/SVG/1.1/DTD/svg11.dtd">
<svg version="1.1" xmlns="http://www.w3.org/2000/svg" xmlns:xlink="http://www.w3.org/1999/xlink" preserveAspectRatio="xMidYMid meet" viewBox="0 0 76 76" width="76" height="76">
	<defs>
		<path d="M75.99 0C76 0 76 0 76 0.01C76 7.61 76 68.39 76 75.99C76 76 76 76 75.99 76C68.39 76 7.61 76 0.01 76C0 76 0 76 0 75.99C0 68.39 0 7.61 0 0.01C0 0 0 0 0.01 0C15.21 0 68.39 0 75.99 0Z" id="c4RgRayzmz">
		</path>
		<path d="M76 0.01C76 7.61 76 68.39 76 75.99C76 76 76 76 75.99 76C68.39 76 7.61 76 0.01 76C0 76 0 76 0 75.99C5.07 70.92 30.4 45.59 75.99 0C76 0 76 0.01 76 0.01Z" id="aZKlD8xUO">
		</path>
		<path d="M67.49 8.5L67.5 8.51L67.5 67.49L67.49 67.5L8.51 67.5L8.5 67.49L8.5 8.51L8.51 8.5L67.49 8.5Z" id="akhWiWIG0">
		</path>
		<path d="M36 16.5L40 16.5L40 55.5L36 55.5L36 55.5L36 16.5Z" id="i3Zw9vFXy">
		</path>
		<path d="M19.38 27L40 40.13L40 13.88L19.38 27Z" id="b1CJ10Rj3l">
		</path>
		<path d="M47.43 51.63C47.43 51.63 47.43 51.63 47.43 51.63C47.43 54.93 47.43 56.76 47.43 57.13C47.43 57.12 47.43 57.12 47.43 57.13C36.11 57.12 29.83 57.12 28.57 57.13C28.57 57.12 28.57 57.12 28.57 57.13C28.57 53.83 28.57 51.99 28.57 51.63C28.57 51.63 28.57 51.63 28.57 51.63C39.89 51.63 46.17 51.63 47.43 51.63Z" id="imiAfoPX9">
		</path>
		<path d="M55.78 56.46C55.78 56.46 55.78 56.46 55.78 56.46C55.78 60.68 55.78 63.03 55.78 63.5C55.78 63.5 55.78 63.5 55.78 63.5C34.44 63.5 22.59 63.5 20.22 63.5C20.22 63.5 20.22 63.5 20.22 63.5C20.22 59.28 20.22 56.93 20.22 56.46C20.22 56.46 20.22 56.46 20.22 56.46C41.56 56.46 53.41 56.46 55.78 56.46Z" id="agikDsBuy">
		</path>
		<path d="M8.82 10.95L10.95 8.82L67.24 65.12L65.12 67.24L8.82 10.95Z" id="aZI0NuNrZ">
		</path>
		<path d="M65.12 8.82L67.24 10.95L10.95 67.24L8.82 65.12L65.12 8.82Z" id="dbrJ6X53I">
		</path>
	</defs>
	<g>
		<g>
			<g>
				<use xlink:href="#c4RgRayzmz" opacity="1" fill="#fdfcfd" fill-opacity="1">
				</use>
				<g>
					<use xlink:href="#c4RgRayzmz" opacity="1" fill-opacity="0" stroke="#000000" stroke-width="1" stroke-opacity="0">
					</use>
				</g>
			</g>
			<g>
				<use xlink:href="#aZKlD8xUO" opacity="1" fill="#757575" fill-opacity="1">
				</use>
				<g>
					<use xlink:href="#aZKlD8xUO" opacity="1" fill-opacity="0" stroke="#000000" stroke-width="1" stroke-opacity="0">
					</use>
				</g>
			</g>
			<g>
				<use xlink:href="#akhWiWIG0" opacity="1" fill="#b9b9b9" fill-opacity="1">
				</use>
				<g>
					<use xlink:href="#akhWiWIG0" opacity="1" fill-opacity="0" stroke="#000000" stroke-width="1" stroke-opacity="0">
					</use>
				</g>
			</g>
			<g>
				<use xlink:href="#i3Zw9vFXy" opacity="1" fill="#000000" fill-opacity="1">
				</use>
				<g>
					<use xlink:href="#i3Zw9vFXy" opacity="1" fill-opacity="0" stroke="#000000" stroke-width="1" stroke-opacity="0">
					</use>
				</g>
			</g>
			<g>
				<use xlink:href="#b1CJ10Rj3l" opacity="1" fill="#ff0000" fill-opacity="1">
				</use>
				<g>
					<use xlink:href="#b1CJ10Rj3l" opacity="1" fill-opacity="0" stroke="#000000" stroke-width="1" stroke-opacity="0">
					</use>
				</g>
			</g>
			<g>
				<use xlink:href="#imiAfoPX9" opacity="1" fill="#000000" fill-opacity="1">
				</use>
				<g>
					<use xlink:href="#imiAfoPX9" opacity="1" fill-opacity="0" stroke="#000000" stroke-width="1" stroke-opacity="0">
					</use>
				</g>
			</g>
			<g>
				<use xlink:href="#agikDsBuy" opacity="1" fill="#000000" fill-opacity="1">
				</use>
				<g>
					<use xlink:href="#agikDsBuy" opacity="1" fill-opacity="0" stroke="#000000" stroke-width="1" stroke-opacity="0">
					</use>
				</g>
			</g>
			<g>
				<use xlink:href="#aZI0NuNrZ" opacity="1" fill="#ff0000" fill-opacity="1">
				</use>
				<g>
					<use xlink:href="#aZI0NuNrZ" opacity="1" fill-opacity="0" stroke="#000000" stroke-width="0.1" stroke-opacity="1">
					</use>
				</g>
			</g>
			<g>
				<use xlink:href="#dbrJ6X53I" opacity="1" fill="#ff0000" fill-opacity="1">
				</use>
				<g>
					<use xlink:href="#dbrJ6X53I" opacity="1" fill-opacity="0" stroke="#000000" stroke-width="0.1" stroke-opacity="1">
					</use>
				</g>
			</g>
		</g>
	</g>
</svg>
